<svg width="50" height="50" viewBox="0 0 50 50" fill="none" xmlns="http://www.w3.org/2000/svg">
<rect width="50" height="50" rx="25" fill="#F5F7FA"/>
<path d="M24.999 13.8027C31.1835 13.8027 36.1973 18.8165 36.1973 25.001C36.197 31.1852 31.1833 36.1982 24.999 36.1982C18.8149 36.198 13.802 31.1851 13.8018 25.001C13.8018 18.8167 18.8148 13.803 24.999 13.8027ZM29.708 19.5312C29.2765 19.5312 28.9268 19.881 28.9268 20.3125V26.9463C28.9267 29.1165 26.9855 30.9888 24.4453 30.9893C21.9047 30.9893 19.9629 29.1167 19.9629 26.9463V26.667L19.7861 26.4512L17.8125 24.0391C17.5393 23.7054 17.0468 23.6567 16.7129 23.9297C16.3794 24.2029 16.3305 24.6945 16.6035 25.0283L18.4082 27.2344C18.5707 30.2524 21.2727 32.5518 24.4453 32.5518C27.7178 32.5513 30.4892 30.1046 30.4893 26.9463V20.3125C30.4893 19.8812 30.1393 19.5315 29.708 19.5312ZM22.3955 19.0117C21.9641 19.0118 21.6143 19.3615 21.6143 19.793V26.043C21.6144 26.4743 21.9642 26.8242 22.3955 26.8242C22.8269 26.8242 23.1766 26.4743 23.1768 26.043V19.793C23.1768 19.3615 22.827 19.0117 22.3955 19.0117ZM27.6035 17.9688C27.1721 17.9688 26.8223 18.3186 26.8223 18.75V25.5205C26.8223 25.9519 27.1722 26.3017 27.6035 26.3018C28.0349 26.3018 28.3847 25.9519 28.3848 25.5205V18.75C28.3848 18.3185 28.035 17.9688 27.6035 17.9688ZM25 16.9277C24.5686 16.9278 24.2188 17.2775 24.2188 17.709V25.001C24.219 25.4322 24.5687 25.7822 25 25.7822C25.4313 25.7822 25.781 25.4322 25.7812 25.001V17.709C25.7812 17.2775 25.4315 16.9277 25 16.9277Z" fill="url(#paint0_linear_29_37141)"/>
<defs>
<linearGradient id="paint0_linear_29_37141" x1="24.9995" y1="13.8027" x2="24.9995" y2="36.1982" gradientUnits="userSpaceOnUse">
<stop stop-color="#CEA61E"/>
<stop offset="1" stop-color="#FCBA36"/>
</linearGradient>
</defs>
</svg>
