<svg width="25" height="25" viewBox="0 0 25 25" fill="none" xmlns="http://www.w3.org/2000/svg">
<path d="M12.499 1.30273C18.6835 1.30273 23.6973 6.31654 23.6973 12.501C23.697 18.6852 18.6833 23.6982 12.499 23.6982C6.31494 23.698 1.30201 18.6851 1.30176 12.501C1.30176 6.31668 6.31478 1.30297 12.499 1.30273ZM17.208 7.03125C16.7765 7.03125 16.4268 7.38103 16.4268 7.8125V14.4463C16.4267 16.6165 14.4855 18.4888 11.9453 18.4893C9.40468 18.4893 7.46294 16.6167 7.46289 14.4463V14.167L7.28613 13.9512L5.3125 11.5391C5.0393 11.2054 4.54676 11.1567 4.21289 11.4297C3.87937 11.7029 3.83054 12.1945 4.10352 12.5283L5.9082 14.7344C6.07073 17.7524 8.77271 20.0518 11.9453 20.0518C15.2178 20.0513 17.9892 17.6046 17.9893 14.4463V7.8125C17.9893 7.38117 17.6393 7.03148 17.208 7.03125ZM9.89551 6.51172C9.46408 6.51178 9.11426 6.86153 9.11426 7.29297V13.543C9.11441 13.9743 9.46418 14.3242 9.89551 14.3242C10.3269 14.3242 10.6766 13.9743 10.6768 13.543V7.29297C10.6768 6.8615 10.327 6.51172 9.89551 6.51172ZM15.1035 5.46875C14.6721 5.46883 14.3223 5.81857 14.3223 6.25V13.0205C14.3223 13.4519 14.6722 13.8017 15.1035 13.8018C15.5349 13.8018 15.8847 13.4519 15.8848 13.0205V6.25C15.8848 5.81853 15.535 5.46875 15.1035 5.46875ZM12.5 4.42773C12.0686 4.42777 11.7188 4.77754 11.7188 5.20898V12.501C11.719 12.9322 12.0687 13.2822 12.5 13.2822C12.9313 13.2822 13.281 12.9322 13.2812 12.501V5.20898C13.2812 4.77751 12.9315 4.42773 12.5 4.42773Z" fill="#CBA51C"/>
</svg>
