<svg width="101" height="100" viewBox="0 0 101 100" fill="none" xmlns="http://www.w3.org/2000/svg">
<path d="M50.5 0C22.9252 0 0.571289 22.3538 0.571289 49.9287C0.571289 77.5036 22.9252 99.8573 50.5 99.8573C78.0749 99.8573 100.429 77.5036 100.429 49.9287C100.429 22.3538 78.0749 0 50.5 0ZM78.1356 35.7144L41.3104 72.5397L41.2423 72.4715L41.2422 72.4716L22.8646 54.094C21.6711 52.9006 21.6711 50.9655 22.8646 49.7719L26.0442 46.5923C27.2376 45.3989 29.1727 45.3989 30.3663 46.5923L41.3104 57.5364L70.6341 28.2127C71.8276 27.0193 73.7626 27.0193 74.9562 28.2127L78.1358 31.3923C79.3291 32.5859 79.3291 34.521 78.1356 35.7144Z" fill="#00BA4D"/>
<path d="M70.8202 28.0367C71.9389 26.927 73.7453 26.9342 74.855 28.0528L78.3464 31.5722C79.4562 32.6909 79.4489 34.4973 78.3303 35.6071L41.1493 72.4919L35.6486 66.947C34.5388 65.8284 34.5461 64.0219 35.6647 62.9122L70.8202 28.0367Z" fill="white"/>
<rect x="20.7805" y="51.9062" width="10.6636" height="27.9973" rx="2.85307" transform="rotate(-45 20.7805 51.9062)" fill="white"/>
</svg>
