<svg width="101" height="100" viewBox="0 0 101 100" fill="none" xmlns="http://www.w3.org/2000/svg">
<path d="M50.5 100C78.1142 100 100.5 77.6142 100.5 50C100.5 22.3858 78.1142 0 50.5 0C22.8858 0 0.5 22.3858 0.5 50C0.5 77.6142 22.8858 100 50.5 100Z" fill="url(#paint0_linear_479_5389)"/>
<path d="M97.418 67.3145C90.916 84.9356 74.7617 97.8887 55.377 99.7637L20.3594 64.7461L19.9043 62.6231L23.4785 53.9824L29.5898 46.7266L38.6973 42.4199L33.584 37.3047L30.9688 29.8086L33.248 22.998L38.248 18.75L45.3125 17.998L50.5 20.3965L97.418 67.3145Z" fill="url(#paint1_linear_479_5389)"/>
<path d="M42.9979 43.4063C41.3015 43.4078 39.62 43.0905 38.0409 42.4707C29.2967 44.6543 22.3026 52.4961 19.9041 62.623C19.8175 62.9885 19.8134 63.3687 19.8921 63.7359C19.9708 64.1032 20.1304 64.4483 20.3592 64.7461C23.9884 69.4676 29.0018 72.9374 34.6991 74.6707C40.3964 76.4041 46.4928 76.3143 52.1366 74.4141V47.4434C52.135 46.3845 52.5496 45.3674 53.2909 44.6113C51.6171 43.6582 49.8222 42.9355 47.9549 42.4629C46.3763 43.0853 44.6948 43.4053 42.9979 43.4063Z" fill="white"/>
<path d="M42.998 41.8438C49.6449 41.8438 55.0332 36.4554 55.0332 29.8086C55.0332 23.1618 49.6449 17.7734 42.998 17.7734C36.3512 17.7734 30.9629 23.1618 30.9629 29.8086C30.9629 36.4554 36.3512 41.8438 42.998 41.8438Z" fill="white"/>
<path d="M81.7908 44.9453H77.6208V47.3164C77.6198 48.2283 77.2571 49.1025 76.6123 49.7473C75.9675 50.3921 75.0933 50.7548 74.1814 50.7559H63.8064C62.8945 50.7548 62.0203 50.3921 61.3755 49.7473C60.7307 49.1025 60.368 48.2283 60.3669 47.3164V44.9453H56.197C55.5345 44.9453 54.8991 45.2085 54.4306 45.677C53.9622 46.1454 53.699 46.7808 53.699 47.4434V79.7285C53.6987 80.0566 53.7632 80.3816 53.8886 80.6848C54.014 80.988 54.198 81.2635 54.4301 81.4955C54.6621 81.7275 54.9376 81.9115 55.2408 82.0369C55.5439 82.1624 55.8689 82.2268 56.197 82.2266H81.783C82.1117 82.2278 82.4375 82.1642 82.7416 82.0392C83.0457 81.9142 83.3221 81.7304 83.555 81.4982C83.7878 81.2661 83.9725 80.9903 84.0984 80.6866C84.2244 80.3829 84.2891 80.0573 84.2888 79.7285V47.4434C84.2888 46.7808 84.0256 46.1454 83.5572 45.677C83.0887 45.2085 82.4533 44.9453 81.7908 44.9453ZM78.9939 58.0078L66.3962 70.6074C66.207 70.7961 65.9506 70.9021 65.6833 70.9021C65.4161 70.9021 65.1597 70.7961 64.9705 70.6074L58.9939 64.6289C58.8051 64.4401 58.699 64.184 58.699 63.917C58.699 63.65 58.8051 63.3939 58.9939 63.2051C59.1827 63.0163 59.4388 62.9102 59.7058 62.9102C59.9728 62.9102 60.2289 63.0163 60.4177 63.2051L65.6912 68.4785L77.5779 56.5918C77.7667 56.403 78.0228 56.2969 78.2898 56.2969C78.422 56.2969 78.5529 56.323 78.6751 56.3735C78.7972 56.4241 78.9082 56.4983 79.0017 56.5918C79.0952 56.6853 79.1694 56.7963 79.22 56.9184C79.2706 57.0406 79.2966 57.1715 79.2966 57.3037C79.2966 57.4359 79.2706 57.5668 79.22 57.689C79.1694 57.8111 79.0952 57.9221 79.0017 58.0156L78.9939 58.0078Z" fill="white"/>
<path d="M63.8064 49.1934H74.1814C74.4279 49.1934 74.672 49.1448 74.8997 49.0505C75.1274 48.9562 75.3343 48.8179 75.5086 48.6436C75.6829 48.4693 75.8212 48.2624 75.9155 48.0347C76.0098 47.807 76.0583 47.5629 76.0583 47.3164V44.6973C76.0583 44.4509 76.0098 44.2069 75.9154 43.9793C75.8211 43.7517 75.6828 43.5449 75.5085 43.3708C75.3342 43.1966 75.1272 43.0585 74.8995 42.9644C74.6718 42.8703 74.4278 42.822 74.1814 42.8223H72.6052V42.7734C72.6052 42.2518 72.398 41.7516 72.0292 41.3827C71.6603 41.0139 71.1601 40.8066 70.6384 40.8066H67.3474C66.8261 40.8072 66.3264 41.0146 65.9579 41.3834C65.5895 41.7522 65.3826 42.2522 65.3826 42.7734V42.8262H63.8064C63.56 42.8259 63.316 42.8742 63.0883 42.9683C62.8606 43.0624 62.6536 43.2005 62.4793 43.3747C62.305 43.5488 62.1667 43.7556 62.0724 43.9832C61.978 44.2108 61.9294 44.4548 61.9294 44.7012V47.3203C61.9305 47.8174 62.1287 48.2938 62.4806 48.645C62.8325 48.9962 63.3093 49.1934 63.8064 49.1934Z" fill="white"/>
<defs>
<linearGradient id="paint0_linear_479_5389" x1="15.1445" y1="14.6445" x2="85.8555" y2="85.3555" gradientUnits="userSpaceOnUse">
<stop stop-color="#67CE87"/>
<stop offset="1" stop-color="#49B766"/>
</linearGradient>
<linearGradient id="paint1_linear_479_5389" x1="24.5488" y1="31.6914" x2="82.0332" y2="89.1758" gradientUnits="userSpaceOnUse">
<stop stop-color="#3C9956"/>
<stop offset="1" stop-color="#3C9956" stop-opacity="0"/>
</linearGradient>
</defs>
</svg>
