<svg width="55" height="55" viewBox="0 0 55 55" fill="none" xmlns="http://www.w3.org/2000/svg">
<rect width="55" height="55" rx="27.5" fill="url(#paint0_linear_344_4464)"/>
<path d="M27.5002 16.3027C33.6844 16.303 38.6975 21.3167 38.6975 27.501C38.6973 33.685 33.6843 38.6979 27.5002 38.6982C21.316 38.6982 16.3023 33.6852 16.302 27.501C16.302 21.3165 21.3158 16.3027 27.5002 16.3027ZM32.2083 22.0312C31.7768 22.0312 31.427 22.381 31.427 22.8125V29.4463C31.4269 31.6165 29.4859 33.4889 26.9456 33.4893C24.4049 33.4893 22.4632 31.6167 22.4631 29.4463V29.167L22.2864 28.9512L20.3127 26.5391C20.0395 26.2053 19.547 26.1566 19.2131 26.4297C18.8796 26.7029 18.8308 27.1945 19.1038 27.5283L20.9084 29.7344C21.071 32.7524 23.7729 35.0518 26.9456 35.0518C30.2181 35.0514 32.9895 32.6046 32.9895 29.4463V22.8125C32.9895 22.3811 32.6396 22.0314 32.2083 22.0312ZM24.8948 21.5117C24.4635 21.5119 24.1135 21.8616 24.1135 22.293V28.543C24.1137 28.9742 24.4636 29.324 24.8948 29.3242C25.3262 29.3242 25.6759 28.9743 25.676 28.543V22.293C25.676 21.8615 25.3262 21.5117 24.8948 21.5117ZM30.1038 20.4688C29.6723 20.4688 29.3225 20.8185 29.3225 21.25V28.0205C29.3226 28.4519 29.6723 28.8018 30.1038 28.8018C30.5351 28.8017 30.8849 28.4519 30.885 28.0205V21.25C30.885 20.8186 30.5352 20.4688 30.1038 20.4688ZM27.4993 19.4277C27.0679 19.4278 26.718 19.7776 26.718 20.209V27.501C26.7183 27.9321 27.0681 28.2821 27.4993 28.2822C27.9306 28.2822 28.2802 27.9322 28.2805 27.501V20.209C28.2805 19.7775 27.9307 19.4277 27.4993 19.4277Z" fill="white"/>
<defs>
<linearGradient id="paint0_linear_344_4464" x1="27.5" y1="0" x2="27.5" y2="55" gradientUnits="userSpaceOnUse">
<stop stop-color="#CBA51C"/>
<stop offset="1" stop-color="#F5B733"/>
</linearGradient>
</defs>
</svg>
