<svg width="115" height="115" viewBox="0 0 115 115" fill="none" xmlns="http://www.w3.org/2000/svg">
<g filter="url(#filter0_d_344_4464)">
<rect x="30" y="26" width="55" height="55" rx="27.5" fill="url(#paint0_linear_344_4464)" shape-rendering="crispEdges"/>
<path d="M57.5002 42.3027C63.6844 42.303 68.6975 47.3167 68.6975 53.501C68.6973 59.685 63.6843 64.6979 57.5002 64.6982C51.316 64.6982 46.3023 59.6852 46.302 53.501C46.302 47.3165 51.3158 42.3027 57.5002 42.3027ZM62.2083 48.0312C61.7768 48.0312 61.427 48.381 61.427 48.8125V55.4463C61.4269 57.6165 59.4859 59.4889 56.9456 59.4893C54.4049 59.4893 52.4632 57.6167 52.4631 55.4463V55.167L52.2864 54.9512L50.3127 52.5391C50.0395 52.2053 49.547 52.1566 49.2131 52.4297C48.8796 52.7029 48.8308 53.1945 49.1038 53.5283L50.9084 55.7344C51.071 58.7524 53.7729 61.0518 56.9456 61.0518C60.2181 61.0514 62.9895 58.6046 62.9895 55.4463V48.8125C62.9895 48.3811 62.6396 48.0314 62.2083 48.0312ZM54.8948 47.5117C54.4635 47.5119 54.1135 47.8616 54.1135 48.293V54.543C54.1137 54.9742 54.4636 55.324 54.8948 55.3242C55.3262 55.3242 55.6759 54.9743 55.676 54.543V48.293C55.676 47.8615 55.3262 47.5117 54.8948 47.5117ZM60.1038 46.4688C59.6723 46.4688 59.3225 46.8185 59.3225 47.25V54.0205C59.3226 54.4519 59.6723 54.8018 60.1038 54.8018C60.5351 54.8017 60.8849 54.4519 60.885 54.0205V47.25C60.885 46.8186 60.5352 46.4688 60.1038 46.4688ZM57.4993 45.4277C57.0679 45.4278 56.718 45.7776 56.718 46.209V53.501C56.7183 53.9321 57.0681 54.2821 57.4993 54.2822C57.9306 54.2822 58.2802 53.9322 58.2805 53.501V46.209C58.2805 45.7775 57.9307 45.4277 57.4993 45.4277Z" fill="white"/>
</g>
<defs>
<filter id="filter0_d_344_4464" x="0" y="0" width="115" height="115" filterUnits="userSpaceOnUse" color-interpolation-filters="sRGB">
<feFlood flood-opacity="0" result="BackgroundImageFix"/>
<feColorMatrix in="SourceAlpha" type="matrix" values="0 0 0 0 0 0 0 0 0 0 0 0 0 0 0 0 0 0 127 0" result="hardAlpha"/>
<feOffset dy="4"/>
<feGaussianBlur stdDeviation="15"/>
<feComposite in2="hardAlpha" operator="out"/>
<feColorMatrix type="matrix" values="0 0 0 0 0.796078 0 0 0 0 0.647059 0 0 0 0 0.109804 0 0 0 0.1 0"/>
<feBlend mode="normal" in2="BackgroundImageFix" result="effect1_dropShadow_344_4464"/>
<feBlend mode="normal" in="SourceGraphic" in2="effect1_dropShadow_344_4464" result="shape"/>
</filter>
<linearGradient id="paint0_linear_344_4464" x1="57.5" y1="26" x2="57.5" y2="81" gradientUnits="userSpaceOnUse">
<stop stop-color="#CBA51C"/>
<stop offset="1" stop-color="#F5B733"/>
</linearGradient>
</defs>
</svg>
