<svg width="25" height="25" viewBox="0 0 25 25" fill="none" xmlns="http://www.w3.org/2000/svg">
<path d="M16.6665 13.4362V17.8112C16.6665 21.457 15.2081 22.9154 11.5623 22.9154H7.1873C3.54146 22.9154 2.08313 21.457 2.08313 17.8112V13.4362C2.08313 9.79036 3.54146 8.33203 7.1873 8.33203H11.5623C15.2081 8.33203 16.6665 9.79036 16.6665 13.4362Z" fill="#CBA51C"/>
<path d="M17.8123 2.08203H13.4373C10.3079 2.08203 8.79777 3.16409 8.43219 5.76838C8.33542 6.45776 8.91225 7.02995 9.60839 7.02995H11.5623C15.9373 7.02995 17.9685 9.0612 17.9685 13.4362V15.3901C17.9685 16.0862 18.5407 16.663 19.2301 16.5663C21.8344 16.2007 22.9164 14.6905 22.9164 11.5612V7.1862C22.9164 3.54036 21.4581 2.08203 17.8123 2.08203Z" fill="#CBA51C"/>
</svg>
