<svg width="25" height="25" viewBox="0 0 25 25" fill="none" xmlns="http://www.w3.org/2000/svg">
<path d="M16.6665 13.4362V17.8112C16.6665 21.457 15.2081 22.9154 11.5623 22.9154H7.1873C3.54146 22.9154 2.08313 21.457 2.08313 17.8112V13.4362C2.08313 9.79036 3.54146 8.33203 7.1873 8.33203H11.5623C15.2081 8.33203 16.6665 9.79036 16.6665 13.4362Z" stroke="#B1B1B1" stroke-width="1.875" stroke-linecap="round" stroke-linejoin="round"/>
<path d="M22.9165 7.1862V11.5612C22.9165 15.207 21.4581 16.6654 17.8123 16.6654H16.6665V13.4362C16.6665 9.79036 15.2081 8.33203 11.5623 8.33203H8.33313V7.1862C8.33313 3.54036 9.79146 2.08203 13.4373 2.08203H17.8123C21.4581 2.08203 22.9165 3.54036 22.9165 7.1862Z" stroke="#B1B1B1" stroke-width="1.875" stroke-linecap="round" stroke-linejoin="round"/>
</svg>
