<svg width="60" height="60" viewBox="0 0 60 60" fill="none" xmlns="http://www.w3.org/2000/svg">
<rect width="60" height="60" rx="20" fill="#6D6875" fill-opacity="0.1"/>
<path d="M34.1666 30.8797V34.9819C34.1666 38.4004 32.7083 39.7678 29.0624 39.7678H24.6874C21.0416 39.7678 19.5833 38.4004 19.5833 34.9819V30.8797C19.5833 27.4612 21.0416 26.0938 24.6874 26.0938H29.0624C32.7083 26.0938 34.1666 27.4612 34.1666 30.8797Z" stroke="#6D6875" stroke-width="1.875" stroke-linecap="round" stroke-linejoin="round"/>
<path d="M40.4166 25.0183V29.1205C40.4166 32.539 38.9583 33.9064 35.3125 33.9064H34.1666V30.8786C34.1666 27.4601 32.7083 26.0927 29.0624 26.0927H25.8333V25.0183C25.8333 21.5998 27.2916 20.2324 30.9374 20.2324H35.3125C38.9583 20.2324 40.4166 21.5998 40.4166 25.0183Z" stroke="#6D6875" stroke-width="1.875" stroke-linecap="round" stroke-linejoin="round"/>
</svg>
