<svg width="47" height="48" viewBox="0 0 47 48" fill="none" xmlns="http://www.w3.org/2000/svg">
<rect y="0.5" width="47" height="47" rx="23.5" fill="white"/>
<path d="M29.9167 15.75H17.0834C15.787 15.75 15.1388 15.75 14.7361 16.1278C14.3334 16.5057 14.3334 17.1138 14.3334 18.3301V18.9624C14.3334 19.9138 14.3334 20.3895 14.5713 20.7838C14.8093 21.1781 15.2441 21.4229 16.1136 21.9123L18.7838 23.4155C19.3672 23.7439 19.6589 23.9081 19.8678 24.0894C20.3027 24.467 20.5704 24.9107 20.6918 25.4549C20.75 25.7162 20.75 26.022 20.75 26.6335L20.75 29.0805C20.75 29.9143 20.75 30.3312 20.981 30.6562C21.2119 30.9812 21.6221 31.1415 22.4423 31.4622C24.1644 32.1354 25.0255 32.472 25.6378 32.089C26.25 31.706 26.25 30.8309 26.25 29.0805V26.6335C26.25 26.022 26.25 25.7162 26.3083 25.4549C26.4296 24.9107 26.6974 24.467 27.1323 24.0894C27.3412 23.9081 27.6329 23.7439 28.2163 23.4155L30.8865 21.9123C31.756 21.4229 32.1908 21.1781 32.4287 20.7838C32.6667 20.3895 32.6667 19.9138 32.6667 18.9624V18.3301C32.6667 17.1138 32.6667 16.5057 32.264 16.1278C31.8612 15.75 31.2131 15.75 29.9167 15.75Z" stroke="#1C274C" stroke-width="1.375"/>
</svg>
