<svg width="26" height="26" viewBox="0 0 26 26" fill="none" xmlns="http://www.w3.org/2000/svg">
<path d="M9.07825 13.0006L11.6891 15.6222L16.9216 10.3789" stroke="#CBA51C" stroke-width="1.625" stroke-linecap="round" stroke-linejoin="round"/>
<path d="M11.6457 2.65516C12.3932 2.01599 13.6174 2.01599 14.3757 2.65516L16.0874 4.12849C16.4124 4.41016 17.0191 4.63766 17.4524 4.63766H19.2941C20.4424 4.63766 21.3849 5.58016 21.3849 6.72849V8.57016C21.3849 8.99266 21.6124 9.61016 21.8941 9.93516L23.3674 11.6468C24.0066 12.3943 24.0066 13.6185 23.3674 14.3768L21.8941 16.0885C21.6124 16.4135 21.3849 17.0202 21.3849 17.4535V19.2952C21.3849 20.4435 20.4424 21.386 19.2941 21.386H17.4524C17.0299 21.386 16.4124 21.6135 16.0874 21.8952L14.3757 23.3685C13.6282 24.0077 12.4041 24.0077 11.6457 23.3685L9.93408 21.8952C9.60908 21.6135 9.00241 21.386 8.56908 21.386H6.69491C5.54658 21.386 4.60408 20.4435 4.60408 19.2952V17.4427C4.60408 17.0202 4.37658 16.4135 4.10575 16.0885L2.64325 14.366C2.01491 13.6185 2.01491 12.4052 2.64325 11.6577L4.10575 9.93516C4.37658 9.61016 4.60408 9.00349 4.60408 8.58099V6.71766C4.60408 5.56932 5.54658 4.62682 6.69491 4.62682H8.56908C8.99158 4.62682 9.60908 4.39932 9.93408 4.11766L11.6457 2.65516Z" stroke="#CBA51C" stroke-width="1.625" stroke-linecap="round" stroke-linejoin="round"/>
</svg>
