<svg width="60" height="60" viewBox="0 0 60 60" fill="none" xmlns="http://www.w3.org/2000/svg">
<rect width="60" height="60" rx="20" fill="#16DBCC" fill-opacity="0.1"/>
<path d="M26.0781 30.0006L28.689 32.6222L33.9215 27.3789" stroke="#16DBCC" stroke-width="1.625" stroke-linecap="round" stroke-linejoin="round"/>
<path d="M28.6456 19.6552C29.3931 19.016 30.6173 19.016 31.3756 19.6552L33.0873 21.1285C33.4123 21.4102 34.019 21.6377 34.4523 21.6377H36.294C37.4423 21.6377 38.3848 22.5802 38.3848 23.7285V25.5702C38.3848 25.9927 38.6123 26.6102 38.894 26.9352L40.3673 28.6468C41.0065 29.3943 41.0065 30.6185 40.3673 31.3768L38.894 33.0885C38.6123 33.4135 38.3848 34.0202 38.3848 34.4535V36.2952C38.3848 37.4435 37.4423 38.386 36.294 38.386H34.4523C34.0298 38.386 33.4123 38.6135 33.0873 38.8952L31.3756 40.3685C30.6281 41.0077 29.404 41.0077 28.6456 40.3685L26.934 38.8952C26.609 38.6135 26.0023 38.386 25.569 38.386H23.6948C22.5465 38.386 21.604 37.4435 21.604 36.2952V34.4427C21.604 34.0202 21.3765 33.4135 21.1056 33.0885L19.6431 31.366C19.0148 30.6185 19.0148 29.4052 19.6431 28.6577L21.1056 26.9352C21.3765 26.6102 21.604 26.0035 21.604 25.581V23.7177C21.604 22.5693 22.5465 21.6268 23.6948 21.6268H25.569C25.9915 21.6268 26.609 21.3993 26.934 21.1177L28.6456 19.6552Z" stroke="#16DBCC" stroke-width="1.625" stroke-linecap="round" stroke-linejoin="round"/>
</svg>
