<svg width="26" height="26" viewBox="0 0 26 26" fill="none" xmlns="http://www.w3.org/2000/svg">
<path d="M23.3565 11.6351L21.8831 9.92344C21.6015 9.59844 21.374 8.99177 21.374 8.55844V6.71677C21.374 5.56844 20.4315 4.62594 19.2831 4.62594H17.4415C17.019 4.62594 16.4015 4.39844 16.0765 4.11677L14.3648 2.64344C13.6173 2.00427 12.3931 2.00427 11.6348 2.64344L9.93396 4.1276C9.60896 4.39844 8.99146 4.62594 8.56896 4.62594H6.69479C5.54646 4.62594 4.60396 5.56844 4.60396 6.71677V8.56927C4.60396 8.99177 4.37646 9.59844 4.10562 9.92344L2.64313 11.6459C2.01479 12.3934 2.01479 13.6068 2.64313 14.3543L4.10562 16.0768C4.37646 16.4018 4.60396 17.0084 4.60396 17.4309V19.2834C4.60396 20.4318 5.54646 21.3743 6.69479 21.3743H8.56896C8.99146 21.3743 9.60896 21.6018 9.93396 21.8834L11.6456 23.3568C12.3931 23.9959 13.6173 23.9959 14.3756 23.3568L16.0873 21.8834C16.4123 21.6018 17.019 21.3743 17.4523 21.3743H19.294C20.4423 21.3743 21.3848 20.4318 21.3848 19.2834V17.4418C21.3848 17.0193 21.6123 16.4018 21.894 16.0768L23.3673 14.3651C23.9956 13.6176 23.9956 12.3826 23.3565 11.6351ZM17.5065 10.9526L12.274 16.1851C12.1223 16.3368 11.9165 16.4234 11.6998 16.4234C11.4831 16.4234 11.2773 16.3368 11.1256 16.1851L8.50396 13.5634C8.18979 13.2493 8.18979 12.7293 8.50396 12.4151C8.81812 12.1009 9.33812 12.1009 9.65229 12.4151L11.6998 14.4626L16.3581 9.80427C16.6723 9.4901 17.1923 9.4901 17.5065 9.80427C17.8206 10.1184 17.8206 10.6384 17.5065 10.9526Z" fill="#CBA51C"/>
</svg>
