<svg width="21" height="20" viewBox="0 0 21 20" fill="none" xmlns="http://www.w3.org/2000/svg">
<path d="M9.83333 9.99935C9.83333 10.4596 10.2064 10.8327 10.6667 10.8327C11.1269 10.8327 11.5 10.4596 11.5 9.99935C11.5 9.53911 11.1269 9.16602 10.6667 9.16602C10.2064 9.16602 9.83333 9.53911 9.83333 9.99935Z" stroke="#232323" stroke-width="1.66667" stroke-linecap="round" stroke-linejoin="round"/>
<path d="M15.6668 9.99935C15.6668 10.4596 16.0399 10.8327 16.5002 10.8327C16.9604 10.8327 17.3335 10.4596 17.3335 9.99935C17.3335 9.53911 16.9604 9.16602 16.5002 9.16602C16.0399 9.16602 15.6668 9.53911 15.6668 9.99935Z" stroke="#232323" stroke-width="1.66667" stroke-linecap="round" stroke-linejoin="round"/>
<path d="M4.00008 9.99935C4.00008 10.4596 4.37318 10.8327 4.83341 10.8327C5.29365 10.8327 5.66675 10.4596 5.66675 9.99935C5.66675 9.53911 5.29365 9.16602 4.83341 9.16602C4.37318 9.16602 4.00008 9.53911 4.00008 9.99935Z" stroke="#232323" stroke-width="1.66667" stroke-linecap="round" stroke-linejoin="round"/>
</svg>
