<svg width="18" height="18" viewBox="0 0 18 18" fill="none" xmlns="http://www.w3.org/2000/svg">
<path d="M15.7221 4.54127C13.2555 4.29682 10.774 4.1709 8.2999 4.1709C6.83324 4.1709 5.36657 4.24497 3.8999 4.39312L2.38879 4.54127" stroke="white" stroke-width="1.11111" stroke-linecap="round" stroke-linejoin="round"/>
<path d="M6.46289 3.79277L6.62585 2.8224C6.74437 2.1187 6.83326 1.59277 8.08511 1.59277H10.0259C11.2777 1.59277 11.374 2.14833 11.4851 2.82981L11.6481 3.79277" stroke="white" stroke-width="1.11111" stroke-linecap="round" stroke-linejoin="round"/>
<path d="M14.1296 6.88184L13.6481 14.3411C13.5666 15.5041 13.5 16.4078 11.4333 16.4078H6.67774C4.61107 16.4078 4.54441 15.5041 4.46293 14.3411L3.98145 6.88184" stroke="white" stroke-width="1.11111" stroke-linecap="round" stroke-linejoin="round"/>
<path d="M7.81848 12.334H10.2851" stroke="white" stroke-width="1.11111" stroke-linecap="round" stroke-linejoin="round"/>
<path d="M7.20361 9.37012H10.9073" stroke="white" stroke-width="1.11111" stroke-linecap="round" stroke-linejoin="round"/>
</svg>
