<svg width="24" height="24" viewBox="0 0 24 24" fill="none" xmlns="http://www.w3.org/2000/svg">
<path d="M14.8996 2H9.09964C8.41964 2 7.45963 2.4 6.97963 2.88L2.87964 6.98001C2.39964 7.46001 1.99963 8.42001 1.99963 9.10001V14.9C1.99963 15.58 2.39964 16.54 2.87964 17.02L6.97963 21.12C7.45963 21.6 8.41964 22 9.09964 22H14.8996C15.5796 22 16.5396 21.6 17.0196 21.12L21.1196 17.02C21.5996 16.54 21.9996 15.58 21.9996 14.9V9.10001C21.9996 8.42001 21.5996 7.46001 21.1196 6.98001L17.0196 2.88C16.5396 2.4 15.5796 2 14.8996 2Z" stroke="#B1B1B1" stroke-width="1.5625" stroke-linecap="round" stroke-linejoin="round"/>
<path d="M8.50037 15.5L15.5004 8.5" stroke="#B1B1B1" stroke-width="1.5625" stroke-linecap="round" stroke-linejoin="round"/>
<path d="M15.5004 15.5L8.50037 8.5" stroke="#B1B1B1" stroke-width="1.5625" stroke-linecap="round" stroke-linejoin="round"/>
</svg>
