<svg width="24" height="24" viewBox="0 0 24 24" fill="none" xmlns="http://www.w3.org/2000/svg">
<path d="M14.8995 2H9.09952C8.41952 2 7.45951 2.4 6.97951 2.88L2.87952 6.98001C2.39952 7.46001 1.99951 8.42001 1.99951 9.10001V14.9C1.99951 15.58 2.39952 16.54 2.87952 17.02L6.97951 21.12C7.45951 21.6 8.41952 22 9.09952 22H14.8995C15.5795 22 16.5395 21.6 17.0195 21.12L21.1195 17.02C21.5995 16.54 21.9995 15.58 21.9995 14.9V9.10001C21.9995 8.42001 21.5995 7.46001 21.1195 6.98001L17.0195 2.88C16.5395 2.4 15.5795 2 14.8995 2Z" fill="#CBA51C" stroke="#CBA51C" stroke-width="1.5625" stroke-linecap="round" stroke-linejoin="round"/>
<path d="M8.50049 15.5L15.5005 8.5" stroke="white" stroke-width="1.5625" stroke-linecap="round" stroke-linejoin="round"/>
<path d="M15.5005 15.5L8.50049 8.5" stroke="white" stroke-width="1.5625" stroke-linecap="round" stroke-linejoin="round"/>
</svg>
