<svg width="101" height="100" viewBox="0 0 101 100" fill="none" xmlns="http://www.w3.org/2000/svg">
<rect x="73.0161" y="25.8203" width="10.8371" height="55.6579" transform="rotate(45.2291 73.0161 25.8203)" fill="#EF4444"/>
<path d="M50.5 0C22.9252 0 0.571289 22.3538 0.571289 49.9287C0.571289 77.5036 22.9252 99.8573 50.5 99.8573C78.0749 99.8573 100.429 77.5036 100.429 49.9287C100.429 22.3538 78.0749 0 50.5 0ZM78.1356 35.7144L41.3104 72.5397L41.2423 72.4715L41.2422 72.4716L22.8646 54.094C21.6711 52.9006 21.6711 50.9655 22.8646 49.7719L26.0442 46.5923C27.2376 45.3989 29.1727 45.3989 30.3663 46.5923L41.3104 57.5364L70.6341 28.2127C71.8276 27.0193 73.7626 27.0193 74.9562 28.2127L78.1358 31.3923C79.3291 32.5859 79.3291 34.521 78.1356 35.7144Z" fill="#EF4444"/>
<rect x="20.6135" y="51.875" width="10.76" height="28.1371" transform="rotate(-45 20.6135 51.875)" fill="#EF4444"/>
<path d="M64.2858 28.6851C65.4044 27.5754 67.2109 27.5826 68.3206 28.7013L71.812 32.2207C72.9217 33.3393 72.9145 35.1458 71.7959 36.2555L36.6403 71.131C35.5217 72.2407 33.7153 72.2335 32.6055 71.1149L29.1141 67.5954C28.0044 66.4768 28.0116 64.6703 29.1303 63.5606L64.2858 28.6851Z" fill="white"/>
<path d="M71.8544 63.7463C72.9686 64.8604 72.9686 66.6669 71.8544 67.7811L68.349 71.2865C67.2348 72.4007 65.4283 72.4007 64.3141 71.2865L29.2983 36.2707C28.1841 35.1565 28.1841 33.3501 29.2983 32.2359L32.8038 28.7305C33.918 27.6163 35.7244 27.6163 36.8386 28.7305L71.8544 63.7463Z" fill="white"/>
</svg>
