<svg width="60" height="60" viewBox="0 0 60 60" fill="none" xmlns="http://www.w3.org/2000/svg">
<rect width="60" height="60" rx="20" fill="#FF82AC" fill-opacity="0.1"/>
<path d="M32.5205 20.084H26.4788C25.7705 20.084 24.7705 20.5007 24.2705 21.0007L19.9997 25.2715C19.4997 25.7715 19.083 26.7715 19.083 27.4798V33.5215C19.083 34.2298 19.4997 35.2298 19.9997 35.7298L24.2705 40.0006C24.7705 40.5006 25.7705 40.9173 26.4788 40.9173H32.5205C33.2288 40.9173 34.2288 40.5006 34.7288 40.0006L38.9997 35.7298C39.4997 35.2298 39.9163 34.2298 39.9163 33.5215V27.4798C39.9163 26.7715 39.4997 25.7715 38.9997 25.2715L34.7288 21.0007C34.2288 20.5007 33.2288 20.084 32.5205 20.084Z" stroke="#FF82AC" stroke-width="1.5625" stroke-linecap="round" stroke-linejoin="round"/>
<path d="M25.8545 34.1452L33.1462 26.8535" stroke="#FF82AC" stroke-width="1.5625" stroke-linecap="round" stroke-linejoin="round"/>
<path d="M33.1462 34.1452L25.8545 26.8535" stroke="#FF82AC" stroke-width="1.5625" stroke-linecap="round" stroke-linejoin="round"/>
</svg>
