<svg width="60" height="60" viewBox="0 0 60 60" fill="none" xmlns="http://www.w3.org/2000/svg">
<rect width="60" height="60" rx="20" fill="#396AFF" fill-opacity="0.1"/>
<path d="M37.2917 33.906V24.6273C37.2917 23.5529 36.3542 22.6738 35.2083 22.6738H29.4792" stroke="#396AFF" stroke-width="1.5625" stroke-linecap="round" stroke-linejoin="round"/>
<path d="M32.0833 20.2324L28.9583 22.6742L32.0833 25.116" stroke="#396AFF" stroke-width="1.5625" stroke-linecap="round" stroke-linejoin="round"/>
<path d="M37.2917 39.7665C39.0176 39.7665 40.4167 38.4547 40.4167 36.8364C40.4167 35.2181 39.0176 33.9062 37.2917 33.9062C35.5658 33.9062 34.1667 35.2181 34.1667 36.8364C34.1667 38.4547 35.5658 39.7665 37.2917 39.7665Z" stroke="#396AFF" stroke-width="1.5625" stroke-linecap="round" stroke-linejoin="round"/>
<path d="M22.7083 26.0938V35.3725C22.7083 36.4469 23.6458 37.326 24.7917 37.326H30.5208" stroke="#396AFF" stroke-width="1.5625" stroke-linecap="round" stroke-linejoin="round"/>
<path d="M27.9167 39.7664L31.0417 37.3246L27.9167 34.8828" stroke="#396AFF" stroke-width="1.5625" stroke-linecap="round" stroke-linejoin="round"/>
<path d="M22.7083 26.0927C24.4342 26.0927 25.8333 24.7808 25.8333 23.1626C25.8333 21.5443 24.4342 20.2324 22.7083 20.2324C20.9824 20.2324 19.5833 21.5443 19.5833 23.1626C19.5833 24.7808 20.9824 26.0927 22.7083 26.0927Z" stroke="#396AFF" stroke-width="1.5625" stroke-linecap="round" stroke-linejoin="round"/>
</svg>
