<svg width="21" height="20" viewBox="0 0 21 20" fill="none" xmlns="http://www.w3.org/2000/svg">
<path d="M17.8333 4.98307C15.0583 4.70807 12.2666 4.56641 9.48325 4.56641C7.83325 4.56641 6.18325 4.64974 4.53325 4.81641L2.83325 4.98307" stroke="#EF4444" stroke-width="1.25" stroke-linecap="round" stroke-linejoin="round"/>
<path d="M7.4165 4.14102L7.59984 3.04935C7.73317 2.25768 7.83317 1.66602 9.2415 1.66602H11.4248C12.8332 1.66602 12.9415 2.29102 13.0665 3.05768L13.2498 4.14102" stroke="#EF4444" stroke-width="1.25" stroke-linecap="round" stroke-linejoin="round"/>
<path d="M16.0414 7.61719L15.4998 16.0089C15.4081 17.3172 15.3331 18.3339 13.0081 18.3339H7.65809C5.33309 18.3339 5.25809 17.3172 5.16642 16.0089L4.62476 7.61719" stroke="#EF4444" stroke-width="1.25" stroke-linecap="round" stroke-linejoin="round"/>
<path d="M8.94165 13.75H11.7167" stroke="#EF4444" stroke-width="1.25" stroke-linecap="round" stroke-linejoin="round"/>
<path d="M8.25 10.416H12.4167" stroke="#EF4444" stroke-width="1.25" stroke-linecap="round" stroke-linejoin="round"/>
</svg>
